HIERARCHY
ROOT Hips
{
	OFFSET 0.00000 0.00000 0.00000
	CHANNELS 6 Xposition Yposition Zposition Zrotation Yrotation Xrotation 
	JOINT LHipJoint
	{
		OFFSET 0 0 0
		CHANNELS 3 Zrotation Yrotation Xrotation
		JOINT LeftHip
		{
			OFFSET 1.75344 -1.53157 0.77399
			CHANNELS 3 Zrotation Yrotation Xrotation
			JOINT LeftKnee
			{
				OFFSET 2.25415 -6.19323 0.00000
				CHANNELS 3 Zrotation Yrotation Xrotation
				JOINT LeftAnkle
				{
					OFFSET 2.30342 -6.32861 0.00000
					CHANNELS 3 Zrotation Yrotation Xrotation
					JOINT LeftToe
					{
						OFFSET 0.10958 -0.30108 1.49206
						CHANNELS 3 Zrotation Yrotation Xrotation
						End Site
						{
							OFFSET 0.00000 -0.00000 0.77783
						}
					}
				}
			}
		}
	}
	JOINT RHipJoint
	{
		OFFSET 0 0 0
		CHANNELS 3 Zrotation Yrotation Xrotation
		JOINT RightHip
		{
			OFFSET -1.81912 -1.53156 0.77399
			CHANNELS 3 Zrotation Yrotation Xrotation
			JOINT RightKnee
			{
				OFFSET -2.22882 -6.12365 0.00000
				CHANNELS 3 Zrotation Yrotation Xrotation
				JOINT RightAnkle
				{
					OFFSET -2.21943 -6.09785 0.00000
					CHANNELS 3 Zrotation Yrotation Xrotation
					JOINT RightToe
					{
						OFFSET -0.18931 -0.52012 1.59379
						CHANNELS 3 Zrotation Yrotation Xrotation
						End Site
						{
							OFFSET -0.00000 -0.00000 0.84686
						}
					}
				}
			}
		}
	}
	JOINT lowerback
	{
		OFFSET 0 0 0
		CHANNELS 3 Zrotation Yrotation Xrotation
		JOINT Chest
		{
			OFFSET -0.00200 1.66634 -0.14248
			CHANNELS 3 Zrotation Yrotation Xrotation
			JOINT Chest2
			{
				OFFSET -0.00875 1.64542 0.09514
				CHANNELS 3 Zrotation Yrotation Xrotation
				JOINT lowerneck
				{
					OFFSET 0 0 0
					CHANNELS 3 Zrotation Yrotation Xrotation
					JOINT Neck
					{
						OFFSET 0.02257 1.59605 0.00839
						CHANNELS 3 Zrotation Yrotation Xrotation
						JOINT Head
						{
							OFFSET -0.10214 1.57530 -0.23335
							CHANNELS 3 Zrotation Yrotation Xrotation
							End Site
							{
								OFFSET -0.03588 1.60717 -0.08062
							}
						}
					}
				}
				JOINT LeftCollar
				{
					OFFSET 0 0 0
					CHANNELS 3 Zrotation Yrotation Xrotation
					JOINT LeftShoulder
					{
						OFFSET 2.54983 1.10186 0.40078
CHANNELS 3 Zrotation Xrotation Yrotation
						JOINT LeftElbow
						{
OFFSET 0 -4.288400 0.000000
CHANNELS 3 Zrotation Xrotation Yrotation
							JOINT LeftWrist
							{
OFFSET 0 -3.065520 -0.000000
CHANNELS 3 Zrotation Xrotation Yrotation
								JOINT lhand
								{
									OFFSET 0 0 0
CHANNELS 3 Zrotation Xrotation Yrotation
									JOINT LFingers
									{
OFFSET 0 -0.753040 0.000000
CHANNELS 3 Zrotation Xrotation Yrotation
										End Site
										{
OFFSET 0 -0.607120 0.000000
										}
									}
								}
								JOINT LThumb
								{
OFFSET 0 0.000000 0.000000
CHANNELS 3 Zrotation Xrotation Yrotation
									End Site
									{
OFFSET 0 -0.616390 0.616390
									}
								}
							}
						}
					}
				}
				JOINT RightCollar
				{
					OFFSET 0 0 0
					CHANNELS 3 Zrotation Yrotation Xrotation
					JOINT RightShoulder
					{
						OFFSET -2.60909 1.35448 0.21802
CHANNELS 3 Zrotation Xrotation Yrotation
						JOINT RightElbow
						{
OFFSET 0 -4.521720 -0.000000
CHANNELS 3 Zrotation Xrotation Yrotation
							JOINT RightWrist
							{
OFFSET 0 -2.891400 0.000000
CHANNELS 3 Zrotation Xrotation Yrotation
								JOINT rhand
								{
									OFFSET 0 0 0
CHANNELS 3 Zrotation Xrotation Yrotation
									JOINT RFingers
									{
OFFSET 0 -0.680540 0.000000
CHANNELS 3 Zrotation Xrotation Yrotation
										End Site
										{
OFFSET 0 -0.548670 0.000000
										}
									}
								}
								JOINT RThumb
								{
OFFSET 0 0.000000 0.000000
CHANNELS 3 Zrotation Xrotation Yrotation
									End Site
									{
OFFSET 0 -0.557050 0.557050
									}
								}
							}
						}
					}
				}
			}
		}
	}
}
MOTION
Frames: 8
Frame Time: 0.008333333333333333
8.643800 15.521500 23.176800 -179.185000 -2.566300 -179.240000 0.000000 0.000000 0.000000 -22.585900 -15.546000 -2.368700 1.742700 8.308300 23.654500 1.365200 6.410300 -25.223700 1.626400 -8.040200 -22.836300 0.000000 0.000000 0.000000 27.987500 12.324800 2.429700 -0.769900 -5.602800 15.636200 1.229600 -23.620900 -23.775000 -0.002800 0.341300 -0.937800 1.873000 1.545900 7.769500 0.160300 2.238500 -4.254700 -1.217900 0.954700 -8.805700 -9.865200 -4.729700 -5.829500 10.224100 -6.779000 9.882200 4.362500 -3.282600 4.586300 -0.000000 -0.000000 0.000000 3.471900 12.219900 -32.555200 18.708900 -29.055400 4.888700 7.252300 12.659600 33.822100 0.000000 0.000000 0.000000 -7.125000 0.000000 0.000000 -13.889300 -3.182300 -15.079000 -0.000000 -0.000000 0.000000 -4.083500 10.766900 40.198000 -18.390500 -28.654300 -4.735000 -11.251500 27.746000 53.227400 0.000000 0.000000 0.000000 7.125000 0.000000 -0.000000 67.984800 75.509000 -53.536100
8.645555 15.520737 23.175961 -179.175082 -2.580720 -179.195750 0.000000 0.000000 0.000000 -22.559655 -15.586436 -2.392046 1.741174 8.304714 23.643514 1.357723 6.462790 -25.200049 1.693691 -8.196068 -23.311611 0.000000 0.000000 0.000000 28.009778 12.376146 2.391553 -0.772952 -5.613634 15.667328 1.246003 -23.694981 -23.766684 -0.005241 0.463752 -1.274256 1.835311 1.492494 7.716857 0.190741 2.162817 -4.251801 -1.151448 0.921360 -8.776479 -9.942791 -4.727640 -5.842470 10.254618 -6.771371 9.892957 4.385236 -3.279625 4.594616 0.000000 0.000000 0.000000 3.376304 12.120794 -32.512628 18.733619 -29.086299 4.900678 7.257793 12.722390 33.632662 0.000000 0.000000 0.000000 -7.125000 0.000000 0.000000 -13.875109 -2.999653 -15.020177 0.000000 0.000000 0.000000 -4.165516 10.655587 40.347154 -18.312909 -28.555957 -4.697921 -11.137746 27.631025 53.032012 0.000000 0.000000 0.000000 7.125000 0.000000 0.000000 67.302581 75.409208 -52.802230
8.645837 15.521078 23.173859 -179.173578 -2.516205 -179.199354 0.000000 0.000000 0.000000 -22.561492 -15.566659 -2.356231 1.735967 8.292977 23.607601 1.364813 6.466426 -25.256331 1.675895 -8.155048 -23.186423 0.000000 0.000000 0.000000 28.018172 12.412767 2.401839 -0.776372 -5.625835 15.702452 1.238058 -23.667884 -23.789868 -0.004633 0.436486 -1.199318 1.821339 1.458336 7.705075 0.201252 2.115846 -4.244537 -1.125015 0.899957 -8.763982 -10.016701 -4.741619 -5.903295 10.276616 -6.791245 9.998267 4.401503 -3.289901 4.642215 0.000000 0.000000 0.000000 3.321936 12.037518 -32.453807 18.719055 -29.068029 4.893620 7.171679 12.820519 33.676609 0.000000 0.000000 0.000000 -7.125000 0.000000 0.000000 -13.924655 -3.031615 -15.084673 0.000000 0.000000 0.000000 -4.238224 10.574723 40.551000 -18.248991 -28.474811 -4.667416 -10.849664 27.411927 52.990389 0.000000 0.000000 0.000000 7.125000 0.000000 0.000000 67.273184 75.288012 -52.642143
8.645109 15.521427 23.170352 -179.183376 -2.392078 -179.238105 0.000000 0.000000 0.000000 -22.589504 -15.503940 -2.274858 1.729216 8.277739 23.560913 1.381502 6.433050 -25.361961 1.602819 -7.982961 -22.663225 0.000000 0.000000 0.000000 28.014994 12.445927 2.450855 -0.779986 -5.638681 15.739523 1.222112 -23.602656 -23.812725 -0.003371 0.375261 -1.031117 1.814448 1.447641 7.716767 0.196077 2.100910 -4.236461 -1.124652 0.893177 -8.762517 -10.069167 -4.769039 -5.978212 10.282210 -6.835041 10.157436 4.406854 -3.312275 4.709833 0.000000 0.000000 0.000000 3.305390 11.969810 -32.425899 18.690942 -29.032820 4.879972 7.075604 12.890158 33.878299 0.000000 0.000000 0.000000 -7.125000 0.000000 0.000000 -13.988954 -3.214996 -15.201496 0.000000 0.000000 0.000000 -4.314591 10.549809 40.818057 -18.208566 -28.423395 -4.648134 -10.457493 27.094019 53.076453 0.000000 0.000000 0.000000 7.125000 0.000000 0.000000 67.761099 75.164591 -52.953196
8.643910 15.520912 23.165546 -179.204725 -2.231376 -179.297174 0.000000 0.000000 0.000000 -22.638510 -15.415633 -2.165132 1.722686 8.262853 23.515217 1.400794 6.387648 -25.479397 1.513303 -7.768673 -22.013610 0.000000 0.000000 0.000000 28.004169 12.486089 2.526281 -0.783467 -5.650928 15.774952 1.211552 -23.552343 -23.812281 -0.003450 0.376595 -1.034885 1.800062 1.460585 7.736425 0.181518 2.116366 -4.231067 -1.134752 0.901217 -8.767602 -10.090724 -4.803888 -6.037278 10.268733 -6.893645 10.328962 4.400221 -3.342712 4.778455 0.000000 0.000000 0.000000 3.316895 11.914073 -32.461112 18.670810 -29.007633 4.870160 7.059757 12.869680 34.153511 0.000000 0.000000 0.000000 -7.125000 0.000000 0.000000 -14.013951 -3.479407 -15.291955 0.000000 0.000000 0.000000 -4.406024 10.594698 41.147384 -18.197214 -28.408867 -4.642712 -10.028949 26.698008 53.256609 0.000000 0.000000 0.000000 7.125000 0.000000 0.000000 68.605817 75.054824 -53.606338
8.644063 15.519615 23.161808 -179.215406 -2.110146 -179.329217 0.000000 0.000000 0.000000 -22.671087 -15.332091 -2.091890 1.716582 8.248891 23.472722 1.387443 6.515135 -25.458722 1.579678 -7.928967 -22.498762 0.000000 0.000000 0.000000 28.008136 12.550786 2.583502 -0.784459 -5.654285 15.784565 1.207889 -23.538228 -23.819377 -0.005663 0.481194 -1.322131 1.764128 1.464781 7.751531 0.189147 2.118807 -4.236484 -1.107516 0.904422 -8.783853 -10.133830 -4.800760 -6.047272 10.276591 -6.895781 10.416852 4.409376 -3.345840 4.808743 0.000000 0.000000 0.000000 3.279969 11.832591 -32.501090 18.666538 -29.002216 4.868100 7.439472 12.612875 34.253913 0.000000 0.000000 0.000000 -7.125000 0.000000 0.000000 -13.814214 -3.623984 -15.093743 0.000000 0.000000 0.000000 -4.527254 10.646273 41.462630 -18.194467 -28.405434 -4.641415 -9.675861 26.398860 53.413012 0.000000 0.000000 0.000000 7.125000 0.000000 0.000000 69.322521 74.965255 -54.167098
8.644966 15.519473 23.158936 -179.225509 -2.025825 -179.315050 0.000000 0.000000 0.000000 -22.684719 -15.277604 -2.082014 1.711981 8.238395 23.440623 1.363232 6.742378 -25.420255 1.710979 -8.232396 -23.424415 0.000000 0.000000 0.000000 28.008003 12.619064 2.602021 -0.784065 -5.652847 15.780373 1.198451 -23.502048 -23.838602 -0.006316 0.512319 -1.407727 1.735876 1.457482 7.737756 0.184242 2.104266 -4.254898 -1.094546 0.898211 -8.797042 -10.144300 -4.789256 -6.096719 10.271453 -6.888213 10.539978 4.409001 -3.342788 4.853935 0.000000 0.000000 0.000000 3.297224 11.736091 -32.652088 18.676590 -29.014879 4.872972 7.740629 12.338626 34.140651 0.000000 0.000000 0.000000 -7.125000 0.000000 0.000000 -13.643300 -3.552470 -14.880109 0.000000 0.000000 0.000000 -4.578361 10.662786 41.626191 -18.182536 -28.390275 -4.635728 -9.257790 26.081227 53.543421 0.000000 0.000000 0.000000 7.125000 0.000000 0.000000 69.965982 74.843801 -54.626137
8.646213 15.520315 23.156240 -179.233725 -1.945513 -179.274820 0.000000 0.000000 0.000000 -22.680011 -15.252259 -2.099992 1.708780 8.231088 23.418263 1.359990 6.839276 -25.457341 1.732502 -8.282149 -23.576211 0.000000 0.000000 0.000000 28.005327 12.700037 2.598316 -0.783259 -5.650076 15.772433 1.189986 -23.471936 -23.861106 -0.006332 0.514014 -1.412489 1.720817 1.444691 7.711071 0.165337 2.081791 -4.291819 -1.102467 0.886186 -8.821952 -10.127680 -4.777041 -6.178984 10.254959 -6.886353 10.729955 4.399403 -3.342077 4.924409 0.000000 0.000000 0.000000 3.364318 11.671690 -32.859546 18.710243 -29.057079 4.889331 7.842417 12.127506 33.994909 0.000000 0.000000 0.000000 -7.125000 0.000000 0.000000 -13.578627 -3.424266 -14.776367 0.000000 0.000000 0.000000 -4.576967 10.678880 41.709689 -18.158430 -28.359570 -4.624273 -8.860727 25.771424 53.561413 0.000000 0.000000 0.000000 7.125000 0.000000 0.000000 70.196642 74.700368 -54.678770
